<?xml version="1.0" encoding="UTF-8"?>
<!DOCTYPE svg PUBLIC "-//W3C//DTD SVG 1.1//EN">
<!-- Creator: CorelDRAW 2021 (64-Bit) -->
<svg xmlns="http://www.w3.org/2000/svg" xml:space="preserve" width="263px" height="270px" version="1.1" style="shape-rendering:geometricPrecision; text-rendering:geometricPrecision; image-rendering:optimizeQuality; fill-rule:evenodd; clip-rule:evenodd"
viewBox="0 0 78 80"
 xmlns:xlink="http://www.w3.org/1999/xlink">
 <defs>
  <style type="text/css">
   <![CDATA[
    .fil0 {fill:#0290FF}
   ]]>
  </style>
 </defs>
 <g id="Capa_x0020_1">
  <metadata />
  <path class="fil0" d="M21.7 28.74c-2.77,0.37 -0.98,5.65 -0.17,8.73 0.82,3.08 0.72,2.77 2.68,2.63 0.68,6.18 1.5,10.72 5.39,13.08 0,0 0.71,9.11 -1.46,10.15 -2.16,1.05 -11.33,0.48 -20.76,6.21 -9.42,5.73 -7.14,10.46 -7.14,10.46l38.76 0 38.76 0c0,0 2.28,-4.73 -7.14,-10.46 -9.43,-5.73 -18.6,-5.16 -20.76,-6.21 -2.17,-1.04 -1.46,-10.15 -1.46,-10.15 3.89,-2.36 4.71,-6.9 5.4,-13.08 1.96,0.14 1.85,0.45 2.67,-2.63 0.81,-3.08 2.6,-8.36 -0.17,-8.73 2.31,-17.41 -0.95,-28.74 -17.61,-28.74 -16.65,0 -19.76,12.63 -16.99,28.74z"/>
 </g>
</svg>
